<svg width="270" height="275" viewBox="0 0 270 275" fill="none" xmlns="http://www.w3.org/2000/svg">
    <rect x="0.488281" width="269.226" height="275" rx="134.613" fill="#08072A"/>
    <path d="M186.098 98.0384L204.135 80.1698L222.52 77.8183L232.811 96.2541L221.008 109.601L220.62 110.04L220.813 110.593C222.288 114.81 223.452 119.129 224.294 123.517L224.401 124.076L224.936 124.269L242.09 130.466L241.775 151.545L224.865 157.209L224.311 157.395L224.2 157.968C223.354 162.355 222.191 166.675 220.72 170.893L220.532 171.432L220.899 171.867L232.675 185.834L221.86 203.94L204.414 200.35L203.84 200.232L203.456 200.675C200.527 204.055 197.352 207.214 193.958 210.127L193.524 210.499L193.625 211.062L196.831 229.025L178.418 239.298L170.01 231.863V197.319C177.986 192.27 184.812 185.594 190.038 177.727C195.366 169.704 198.908 160.63 200.423 151.119C201.938 141.608 201.39 131.882 198.817 122.602C196.326 113.617 191.993 105.253 186.098 98.0384ZM74.2383 210.908L74.3547 210.336L73.9134 209.953C70.5332 207.023 67.3738 203.848 64.4607 200.454L64.0886 200.021L63.5262 200.121L45.5629 203.328L35.2897 184.915L47.0926 171.568L47.481 171.129L47.2873 170.575C45.8117 166.358 44.6485 162.039 43.8072 157.652L43.7 157.093L43.1649 156.9L26.0102 150.702L26.3163 129.623L43.2267 123.959L43.7805 123.774L43.891 123.2C44.7363 118.813 45.8996 114.494 47.3716 110.275L47.5593 109.737L47.1922 109.302L35.4258 95.3344L46.2322 77.2274L63.2632 80.6936L81.4274 98.8847C75.6948 106.122 71.5131 114.466 69.1468 123.397C66.7034 132.619 66.2517 142.256 67.8218 151.666C69.3919 161.076 72.9479 170.044 78.253 177.973C83.4551 185.748 90.2218 192.349 98.1187 197.356V231.316L88.8007 239.162L70.6931 228.347L74.2383 210.908Z"
          fill="url(#paint0_linear_1761_82591)" stroke="black" stroke-width="2"/>
    <path d="M157.912 78.1583V143.581L146.159 150.366L134.405 157.151L122.652 150.366L122.152 151.232L122.652 150.366L110.898 143.581V78.1117V76.2891L109.36 77.2682L98.3856 84.2585L98.3839 84.2595C94.6127 86.672 91.0911 89.4528 87.871 92.5607L70.4623 75.1521C71.7732 73.8844 73.1282 72.6472 74.5275 71.4404L74.958 71.069L74.8591 70.5091L71.6885 52.5635L90.1024 42.2897L103.44 54.0922L103.879 54.481L104.433 54.2872C108.649 52.8114 112.969 51.6484 117.356 50.8072L117.915 50.7L118.108 50.1648L124.306 33.0102L145.385 33.3163L151.039 50.2263L151.224 50.7803L151.798 50.891C156.185 51.7378 160.505 52.9009 164.724 54.3716L165.262 54.5591L165.697 54.1921L179.664 42.4259L197.762 53.2411L194.217 70.6799L194.101 71.2529L194.543 71.6354C195.604 72.5536 196.644 73.4998 197.663 74.4743L180.237 91.9006C177.206 89.0733 173.921 86.5306 170.424 84.305L159.449 77.3149L157.912 76.3358V78.1583Z"
          fill="white" stroke="black" stroke-width="2"/>
    <defs>
        <linearGradient id="paint0_linear_1761_82591" x1="187.703" y1="183.302" x2="89.6648" y2="93.9629"
                        gradientUnits="userSpaceOnUse">
            <stop stop-color="#30BCD0"/>
            <stop offset="1" stop-color="#CA28CC"/>
        </linearGradient>
    </defs>
</svg>
